<svg width="46" height="44" viewBox="0 0 46 44" fill="none" xmlns="http://www.w3.org/2000/svg">
<path d="M29.2037 35.5384C29.2037 39.9534 25.7619 43.5 21.5556 43.5C17.3492 43.5 13.9074 39.9534 13.9074 35.5384C13.9074 31.1235 17.3492 27.5769 21.5556 27.5769C25.7619 27.5769 29.2037 31.1235 29.2037 35.5384Z" stroke="black"/>
<path d="M45.5 18.6154C45.5 23.0304 42.0582 26.5769 37.8519 26.5769C33.6455 26.5769 30.2037 23.0304 30.2037 18.6154C30.2037 14.2004 33.6455 10.6538 37.8519 10.6538C42.0582 10.6538 45.5 14.2004 45.5 18.6154Z" stroke="black"/>
<line y1="-0.5" x2="37.8019" y2="-0.5" transform="matrix(-0.560427 -0.828204 0.807791 -0.589469 29.7037 33)" stroke="black"/>
<line y1="-0.5" x2="39.6753" y2="-0.5" transform="matrix(-0.883095 -0.469194 0.441952 -0.897039 37.8519 27.0769)" stroke="black"/>
<path d="M2 8.46155C6.88889 18.6154 14.6296 18.3333 17.8889 16.9231L2 8.46155Z" stroke="black"/>
<path d="M17.7867 15.6675C17.8697 4.31552 10.8494 0.917448 7.32881 0.637413L17.7867 15.6675Z" stroke="black"/>
</svg>
