<svg width="62" height="48" viewBox="0 0 62 48" fill="none" xmlns="http://www.w3.org/2000/svg">
<line x1="46.5" y1="47" x2="46.5" y2="2" stroke="black"/>
<path d="M47 45.8911C68.6361 45.8911 62.0633 18.0238 47 24.5C63.7387 28.5816 63.6432 -1.75005 47 3.79583" stroke="black"/>
<line y1="-0.5" x2="46.8722" y2="-0.5" transform="matrix(-0.192012 0.981393 -0.869561 -0.493825 9 1)" stroke="black"/>
<line y1="-0.5" x2="46.8722" y2="-0.5" transform="matrix(0.192012 0.981393 -0.869561 0.493825 9 1)" stroke="black"/>
<path d="M18 37.8H2.57143" stroke="black"/>
<path d="M42.6097 38.8063L37.6097 35.9196V41.6931L42.6097 38.8063ZM21.3048 39.3063H38.1097V38.3063H21.3048V39.3063Z" fill="black"/>
<path d="M18.2613 24.1611L23.2613 27.0479V21.2744L18.2613 24.1611ZM42.6097 23.6611L22.7613 23.6611V24.6611L42.6097 24.6611V23.6611Z" fill="black"/>
</svg>
