<svg xmlns="http://www.w3.org/2000/svg"  viewBox="0 0 50.00000000000001 53.57124245961289"><g transform="translate(-3.571241182374934, -1.7857076562411127) scale(0.8928540409935481)" class="css-17ivn46" fill="#000000"><g xmlns="http://www.w3.org/2000/svg"><path d="M33,53a1,1,0,0,0-2,0,3.00328,3.00328,0,0,1-3,3,1,1,0,0,0,0,2,3.00328,3.00328,0,0,1,3,3,1,1,0,0,0,2,0,3.00328,3.00328,0,0,1,3-3,1,1,0,0,0,0-2A3.00328,3.00328,0,0,1,33,53Zm-1,5.03094A5.02336,5.02336,0,0,0,30.96906,57,5.02336,5.02336,0,0,0,32,55.96906,5.02336,5.02336,0,0,0,33.03094,57,5.02336,5.02336,0,0,0,32,58.03094Z"></path><path d="M20,7a.99974.99974,0,0,0,1,1,3.00328,3.00328,0,0,1,3,3,1,1,0,0,0,2,0,3.00328,3.00328,0,0,1,3-3,1,1,0,0,0,0-2,3.00328,3.00328,0,0,1-3-3,1,1,0,0,0-2,0,3.00328,3.00328,0,0,1-3,3A.99974.99974,0,0,0,20,7Zm5-1.03094A5.02336,5.02336,0,0,0,26.03094,7,5.02336,5.02336,0,0,0,25,8.03094,5.02336,5.02336,0,0,0,23.96906,7,5.02336,5.02336,0,0,0,25,5.96906Z"></path><path d="M7,30a2.99257,2.99257,0,0,0,1-5.81573V22.72089l7-2.33338v1.79676a3,3,0,1,0,2,0V13.61279L6,17.2793v6.905A2.99257,2.99257,0,0,0,7,30Zm9-6a1,1,0,1,1-1,1A1.001,1.001,0,0,1,16,24ZM8,18.7207l7-2.33349v1.8919L8,20.61249ZM7,26a1,1,0,1,1-1,1A1.001,1.001,0,0,1,7,26Z"></path><path d="M54,42.65918V36.4834l-9,3.85742v9.84345a3,3,0,1,0,2,0V45.65918Zm-7-1,5-2.14258v1.82422L47,43.4834ZM46,54a1,1,0,1,1,1-1A1.001,1.001,0,0,1,46,54Z"></path><path d="M32.55737,20.99738l-2.899,3.24688,9.695,9.695,2.928-2.71118A15.04415,15.04415,0,0,1,32.55737,20.99738Z"></path><polygon points="28.324 25.738 9.375 46.961 17.026 54.612 37.885 35.299 28.324 25.738"></polygon><rect x="8.67147" y="50.96436" width="3.65707" height="5.07128" transform="translate(-34.75483 23.09441) rotate(-45)"></rect><path d="M47,4A13,13,0,1,0,60,17,13.01474,13.01474,0,0,0,47,4Zm0,4a9.01016,9.01016,0,0,0-9,9H36A11.01245,11.01245,0,0,1,47,6Zm3.59961.74854a8.94685,8.94685,0,0,0-1.79883-.56836l.39844-1.96a10.95481,10.95481,0,0,1,2.20117.69532Z"></path></g></g></svg>
