<svg width="29" height="44" viewBox="0 0 29 44" fill="none" xmlns="http://www.w3.org/2000/svg">
<path fill-rule="evenodd" clip-rule="evenodd" d="M10.3195 0.983923L0.243805 0.983923L0.243805 3.05176e-05L10.3195 3.05176e-05V0.983923Z" fill="black"/>
<path fill-rule="evenodd" clip-rule="evenodd" d="M-1.83962e-05 44L-1.63317e-05 0.708771L1.07339 0.708771L1.07339 44L-1.83962e-05 44Z" fill="black"/>
<path fill-rule="evenodd" clip-rule="evenodd" d="M-1.93872e-05 43.0161H10.0757V44H-1.93872e-05V43.0161Z" fill="black"/>
<path fill-rule="evenodd" clip-rule="evenodd" d="M10.3195 -1.02988e-06L10.3195 43.2913L9.24606 43.2913L9.24607 -1.07288e-06L10.3195 -1.02988e-06Z" fill="black"/>
<path fill-rule="evenodd" clip-rule="evenodd" d="M28.3195 0.983923L18.2438 0.983923V3.05176e-05L28.3195 3.05176e-05V0.983923Z" fill="black"/>
<path fill-rule="evenodd" clip-rule="evenodd" d="M18 44L18 0.708771L19.0734 0.708771L19.0734 44L18 44Z" fill="black"/>
<path fill-rule="evenodd" clip-rule="evenodd" d="M18 43.0161H28.0757V44H18V43.0161Z" fill="black"/>
<path fill-rule="evenodd" clip-rule="evenodd" d="M28.3195 -1.02988e-06L28.3195 43.2913L27.2461 43.2913L27.2461 -1.07288e-06L28.3195 -1.02988e-06Z" fill="black"/>
</svg>
